<?xml version="1.0" encoding="utf-8"?>
<!-- Generator: Adobe Illustrator 23.0.2, SVG Export Plug-In . SVG Version: 6.00 Build 0)  -->
<svg version="1.1" id="Layer_1" xmlns="http://www.w3.org/2000/svg" xmlns:xlink="http://www.w3.org/1999/xlink" x="0px" y="0px"
	 viewBox="0 0 512 325" style="enable-background:new 0 0 512 325;" xml:space="preserve">
<style type="text/css">
	.st0{fill:#2B1FD1;stroke:#000000;stroke-width:3;stroke-miterlimit:10;}
	.st1{fill:#F5F5F5;stroke:#000000;stroke-width:3;stroke-miterlimit:10;}
	.st2{fill:#FFFFFF;stroke:#000000;stroke-width:3;stroke-miterlimit:10;}
</style>
<g>
	<path class="st0" d="M290.5,314.5h102.2h13.9c42.7,0,77.4-34.6,77.4-77.4V88c-0.1-42.8-34.8-77.4-77.5-77.4h-301
		c-42.7,0-77.4,34.6-77.4,77.4v149.1c0,42.7,34.6,77.4,77.4,77.4h13.9 M119.4,314.5h277.3"/>
</g>
<g>
	<path class="st1" d="M130.4,298c-47.4,0-85.9-34.5-85.9-77.2V104.2c0-42.6,38.4-77.2,85.9-77.2H330c47.4,0,85.9,34.5,85.9,77.2
		v116.5c0,42.6-38.4,77.2-85.9,77.2H130.4V298z"/>
</g>
<circle class="st2" cx="452.6" cy="109.3" r="14.3"/>
<circle class="st2" cx="452.6" cy="158.5" r="14.3"/>
<circle class="st2" cx="452.6" cy="229.8" r="24.6"/>
<polygon id="XMLID_3_" points="440.6,243.9 451.3,248.6 464.5,213.9 457.5,210.8 "/>
</svg>
