<?xml version="1.0" encoding="utf-8"?>
<!-- Generator: Adobe Illustrator 23.0.2, SVG Export Plug-In . SVG Version: 6.00 Build 0)  -->
<svg version="1.1" id="Layer_1" xmlns="http://www.w3.org/2000/svg" xmlns:xlink="http://www.w3.org/1999/xlink" x="0px" y="0px"
	 viewBox="0 0 512 325" style="enable-background:new 0 0 512 325;" xml:space="preserve">
<style type="text/css">
	.st0{fill:#E9D107;}
	.st1{fill:#DD0202;}
	.st2{fill:#2B1FD1;}
	.st3{fill:none;stroke:#000000;stroke-width:3;stroke-miterlimit:10;}
	.st4{fill:#F5F5F5;stroke:#000000;stroke-width:3;stroke-miterlimit:10;}
	.st5{fill:#FFFFFF;stroke:#000000;stroke-width:3;stroke-miterlimit:10;}
</style>
<polygon class="st0" points="467.4,285.1 460.5,292.6 451.4,300.3 440.4,306.7 429.8,311 420.1,313.3 403.4,314.5 477.5,266.5 
	473.4,276.2 "/>
<polygon class="st1" points="480.3,261.1 478.4,266.1 403.4,314.5 372.7,314.5 484,242.3 482.4,252.9 "/>
<polygon class="st2" points="484,242.3 372.7,314.5 341.1,314.5 484,221.8 "/>
<polygon class="st0" points="484,221.8 341.1,314.5 310.9,314.5 484,202.8 "/>
<polygon class="st1" points="484,202.8 310.9,314.5 280.1,314.5 484,182.2 "/>
<polygon class="st2" points="484,182.2 280.1,314.5 248.4,314.5 484,161.7 "/>
<polygon class="st0" points="484,161.7 248.4,314.5 218.1,314.5 484,143 "/>
<polygon class="st1" points="484,143 218.1,314.5 187.4,314.5 484,122.1 "/>
<polygon class="st2" points="484,122.1 187.4,314.5 156,314.5 484,101.7 "/>
<polygon class="st0" points="484,101.7 157,313.9 125.8,314.5 484,83.4 "/>
<polygon class="st1" points="484,83.4 125.8,314.5 95.7,313.9 480.3,64.4 "/>
<polygon class="st2" points="480.3,64.4 95.7,313.9 73.9,307.8 473.2,48.7 "/>
<polygon class="st0" points="473.2,48.7 73.9,307.8 58.9,298 464.3,36.5 "/>
<polygon class="st1" points="464.3,36.5 58.9,298 45.9,286.5 450.2,24.1 "/>
<polygon class="st2" points="450.2,24.1 45.9,286.5 36.5,272.3 432.8,15.2 "/>
<polygon class="st0" points="432.8,15.2 36.5,272.3 30.6,256.6 411.8,10.8 "/>
<polygon class="st1" points="411.8,10.8 30.6,256.6 28.1,238.2 378.9,10.6 "/>
<polygon class="st2" points="378.9,10.6 28.1,238.2 28.1,218.2 348.1,10.6 "/>
<polyline class="st2" points="105.5,10.6 88,12.6 69.8,19.3 50.8,33.2 41.7,44.1 34.8,55.9 "/>
<polygon class="st0" points="165.5,10.6 28.1,99.2 28.1,79.1 135.5,10.6 "/>
<polygon class="st2" points="195.5,10.6 28.1,119.2 28.1,99.2 165.5,10.6 "/>
<polygon class="st1" points="135.5,10.6 28.1,79.1 34.8,55.9 105.5,10.6 "/>
<polygon class="st1" points="225.5,10.6 28.1,138.7 28.1,119.2 195.5,10.6 "/>
<polygon class="st0" points="257.8,10.6 28.1,158.7 28.1,138.6 225.5,10.6 "/>
<polygon class="st2" points="287.3,10.6 28.1,178.8 28.1,158.7 257.8,10.6 "/>
<polygon class="st1" points="320.1,10.6 28,198.9 28,178.8 287.3,10.6 "/>
<polygon class="st0" points="348.1,10.6 28,218.2 28,198.8 320.1,10.6 "/>
<g>
	<path class="st3" d="M290.5,314.5h102.2h13.9c42.7,0,77.4-34.6,77.4-77.4V88c-0.1-42.8-34.8-77.4-77.5-77.4h-301
		c-42.7,0-77.4,34.6-77.4,77.4v149.1c0,42.7,34.6,77.4,77.4,77.4h13.9 M119.4,314.5h277.3"/>
</g>
<g>
	<path class="st4" d="M130.4,298c-47.4,0-85.9-34.5-85.9-77.2V104.2c0-42.6,38.4-77.2,85.9-77.2H330c47.4,0,85.9,34.5,85.9,77.2
		v116.5c0,42.6-38.4,77.2-85.9,77.2H130.4V298z"/>
</g>
<circle class="st5" cx="452.6" cy="109.3" r="14.3"/>
<circle class="st5" cx="452.6" cy="158.5" r="14.3"/>
<circle class="st5" cx="452.6" cy="229.8" r="24.6"/>
<polygon id="XMLID_3_" points="440.6,243.9 451.3,248.6 464.5,213.9 457.5,210.8 "/>
</svg>
