<?xml version="1.0" encoding="utf-8"?>
<!-- Generator: Adobe Illustrator 23.0.2, SVG Export Plug-In . SVG Version: 6.00 Build 0)  -->
<svg version="1.1" id="Layer_1" xmlns="http://www.w3.org/2000/svg" xmlns:xlink="http://www.w3.org/1999/xlink" x="0px" y="0px"
	 viewBox="0 0 512 325" style="enable-background:new 0 0 512 325;" xml:space="preserve">
<style type="text/css">
	.st0{stroke:#000000;stroke-width:3;stroke-miterlimit:10;}
</style>
<g>
	<polygon id="XMLID_8_" points="405.1,244.4 415.8,249.1 429,214.4 422,211.3 	"/>
	<path class="st0" d="M290.5,314.5h102.2h13.9c42.7,0,77.4-34.6,77.4-77.4V88c-0.1-42.8-34.8-77.4-77.5-77.4h-301
		c-42.7,0-77.4,34.6-77.4,77.4v149.1c0,42.7,34.6,77.4,77.4,77.4h13.9 M119.4,314.5l277.3,0 M418,95c7.9,0,14.3,6.4,14.3,14.3
		c0,7.9-6.4,14.3-14.3,14.3s-14.3-6.4-14.3-14.3S410.1,95,418,95z M418,144.2c7.9,0,14.3,6.4,14.3,14.3s-6.4,14.3-14.3,14.3
		s-14.3-6.4-14.3-14.3S410.1,144.2,418,144.2z M140.7,274.5c-35.2,0-63.8-28.5-63.8-63.8v-96.3c0-35.2,28.5-63.8,63.8-63.8h148.2
		c35.2,0,63.8,28.5,63.8,63.8v96.3c0,35.2-28.5,63.8-63.8,63.8H140.7z M440.5,239.8c-5.5,12.4-20.1,18-32.5,12.5s-18-20.1-12.5-32.5
		s20.1-18,32.5-12.5S446,227.4,440.5,239.8z"/>
</g>
</svg>
